PathFileType	4	(X/Y/Z)	/mnt/D494C4CF94C4B4F0/Trampoline_predictions/poses3d/1_partie_0429.trc
DataRate	CameraRate	NumFrames	NumMarkers	Units	OrigDataRate	OrigDataStartFrame	OrigNumFrames
120	120	4	17	m	120	1309	1746
Frame#	Time	Nose			L Eye			R Eye			L Ear			R Ear			L Shoulder			R Shoulder			L Elbow			R Elbow			L Wrist			R Wrist			L Hip			R Hip			L Knee			R Knee			L Ankle			R Ankle			
		X1	Y1	Z1	X2	Y2	Z2	X3	Y3	Z3	X4	Y4	Z4	X5	Y5	Z5	X6	Y6	Z6	X7	Y7	Z7	X8	Y8	Z8	X9	Y9	Z9	X10	Y10	Z10	X11	Y11	Z11	X12	Y12	Z12	X13	Y13	Z13	X14	Y14	Z14	X15	Y15	Z15	X16	Y16	Z16	X17	Y17	Z17	
1309	10.908333333333	-0.6368512939031206	-0.14723555250747564	4.270847498377621	-0.6814233829082569	-0.14880887828875325	4.26503602317424	-0.6485702019694537	-0.13631535566568795	4.257442869478161	-0.724158200558765	-0.16369050512726133	4.315046197604546	-0.6453028955773633	-0.13607140906001722	4.305569738140859	-0.6917741034735803	-0.36921358072340665	4.469608279657692	-0.559763011370781	-0.062278496392119145	4.474907292650842	-0.6282479837111097	-0.4931554233431335	4.692719850573341	-0.47707349275414157	-0.015399129838110278	4.707594495455493	-0.5826920755473765	-0.6095005312381716	4.892233740195183	-0.43466455423857586	0.055809759307759076	4.909465348262023	-0.4827548779041267	-0.24118540988131587	4.884423177782019	-0.41781349254864214	-0.19089423444146345	4.845228656951139	-0.3174796327357958	-0.12269561611932527	5.227045599103098	-0.3341031384523697	0.013692821533975014	5.15171817289883	-0.3397122802939326	0.056220320820375605	5.534036116659943	-0.3530074539232117	0.09116368187347698	5.479021811223864
1310	10.916666666667	-0.6167150490579465	-0.13583432908527818	4.261234620626558	-0.65874655470795	-0.14622521445215134	4.251310446761823	-0.6203851989965763	-0.12798893621567994	4.246737207297798	-0.7011173821597052	-0.17084224779516974	4.299001372889814	-0.6150574120868205	-0.12930864115313914	4.293327770973327	-0.6849293576619166	-0.3645698344629669	4.4696366996111845	-0.5313907622076259	-0.0653188806326234	4.471146405076709	-0.6332834562921358	-0.4813090511215875	4.694560472708774	-0.4572111004780105	-0.013189059696384444	4.7133890336743764	-0.5904143257186519	-0.5972732208133281	4.898743175164092	-0.4295884956405414	0.05313033023167719	4.921955915714317	-0.4791961230109853	-0.24430082688520974	4.886987747853863	-0.4052531594613734	-0.18494603334889584	4.8490412991002305	-0.3338885689589861	-0.11868361285695285	5.239964084322091	-0.33076528789210874	0.005420920066532634	5.177041560800154	-0.3616552754005194	0.060570553764840274	5.54512492418448	-0.36325964838847197	0.09364216732441573	5.495911918978284
1311	10.925	-0.5874416889065771	-0.15161724477988894	4.257789822425879	-0.6305491404959936	-0.15279277207123992	4.2460533623072605	-0.5967090802457835	-0.13879971238523572	4.245267826417395	-0.6849231540409297	-0.15521224161526428	4.299391712760039	-0.5925718551952446	-0.1381986169636933	4.292238730940107	-0.6744675418594427	-0.35483730489687165	4.4725495324499285	-0.5038028637717701	-0.06447998363524471	4.471218625184871	-0.6349260504470631	-0.46793177003207004	4.7011774172854155	-0.44379838152062234	-0.013467060686944145	4.7140463694161685	-0.5998900170746319	-0.5821394334312573	4.901193198046038	-0.4119093748219946	0.054834662003054535	4.9142263282800815	-0.48051525798642375	-0.22964012334234002	4.892269059686082	-0.4065944771994656	-0.1805556859472134	4.856374055891245	-0.3509123659280496	-0.11307420701770352	5.249266347705153	-0.34292354766386157	0.024935022988715347	5.1810585786359304	-0.3880474587532667	0.06210357709035717	5.5452271993994255	-0.39314208087588204	0.09793734898518605	5.496733654010061
1312	10.933333333333	-0.5942125425990877	-0.14316059739100054	4.2747898056221745	-0.6249357794378471	-0.1466414605492657	4.258137484603183	-0.5886807485747134	-0.14005652469278634	4.254031586347993	-0.6599513926935703	-0.1630868834936166	4.299326356701991	-0.5672300767563055	-0.14586951271155715	4.292204107521446	-0.6600284955644707	-0.34954028466785914	4.463674123714043	-0.48419200746858115	-0.0662325942739846	4.467995196266179	-0.6321470802189955	-0.4512289259270217	4.697937029045666	-0.41399481471911614	-0.022941794191892736	4.706583904842108	-0.6175944728574108	-0.554467572699953	4.912958432149652	-0.39281451691838115	0.03914740318268192	4.917286016775457	-0.4847069397802908	-0.22136499479623595	4.8892697230943325	-0.39080057745968394	-0.12518017047943555	4.852222074057374	-0.3669052506692645	-0.11656618392783784	5.251922534144826	-0.3513360316445111	0.025742847107025513	5.179930692887903	-0.4102388302474717	0.0638143703338195	5.540847579674006	-0.4164369420546105	0.1169612884689471	5.493896320495104
